<?xml version="1.0" encoding="UTF-8" standalone="no"?>
<svg width="16px" height="15px" viewBox="0 0 16 15" version="1.1" xmlns="http://www.w3.org/2000/svg" xmlns:xlink="http://www.w3.org/1999/xlink">
    <!-- Generator: sketchtool 40.1 (33804) - http://www.bohemiancoding.com/sketch -->
    <title>FE9BD5F1-5237-4303-87BB-8E8F821F5D62</title>
    <desc>Created with sketchtool.</desc>
    <defs></defs>
    <g id="1200-Grid" stroke="none" stroke-width="1" fill="none" fill-rule="evenodd">
        <g id="Assets" transform="translate(-408.000000, -213.000000)" fill="#636363">
            <path d="M408,227.181819 L410.836364,227.181819 L410.836364,218.672727 L408,218.672727 L408,227.181819 L408,227.181819 Z M423.6,219.381818 C423.6,218.601818 422.961819,217.963636 422.181819,217.963636 L417.707455,217.963636 L418.381091,214.723091 L418.402364,214.496182 C418.402364,214.205455 418.281818,213.936 418.090364,213.744545 L417.338728,213 L412.672909,217.672909 C412.410546,217.928182 412.254546,218.282727 412.254546,218.672727 L412.254546,225.763637 C412.254546,226.543637 412.892727,227.181819 413.672727,227.181819 L420.054546,227.181819 C420.643091,227.181819 421.146546,226.827273 421.359273,226.316728 L423.500728,221.317637 C423.564546,221.154546 423.6,220.984364 423.6,220.8 L423.6,219.445637 L423.592909,219.438546 L423.6,219.381818 L423.6,219.381818 Z" id="Like"></path>
        </g>
    </g>
</svg>